<svg width="75" height="72" fill="none" xmlns="http://www.w3.org/2000/svg"><path d="M29.5 65h16V41.2h-16V65Zm2.9-20.9h10.1v18H32.4v-18Z" fill="#83B3D3"/><path d="m72.6 39.3 2.1-2.1-9.9-9.9V0H50.9v13.6L37.3 0 0 37.2l2.1 2.1 7.8-7.8v37.6h-4V72h63.9v-2.9h-5.1V31.5l7.9 7.8ZM61.8 69.1h-49V28.5L37.3 4.1l24.5 24.4v40.6Zm0-44.7-7.9-7.9V2.9h7.9v21.5Z" fill="#83B3D3"/><path d="M29.7 27.1c0 4.3 3.5 7.7 7.7 7.7 4.3 0 7.8-3.5 7.8-7.7 0-4.3-3.5-7.7-7.8-7.7a7.7 7.7 0 0 0-7.7 7.7Zm7.8-5a5 5 0 0 1 5 4.9c0 2.7-2.2 4.9-5 4.9a5 5 0 0 1-5-4.9c0-2.7 2.2-4.9 5-4.9ZM19.9 41.2h-3v3.9h3v-3.9ZM25.8 41.2h-3v3.9h3v-3.9ZM19.9 47.2h-3v3.9h3v-3.9ZM25.8 47.2h-3v3.9h3v-3.9ZM51.8 41.2h-3v3.9h3v-3.9ZM57.7 41.2h-3v3.9h3v-3.9ZM51.8 47.2h-3v3.9h3v-3.9ZM57.7 47.2h-3v3.9h3v-3.9Z" fill="#83B3D3"/></svg>