<svg width="75" height="70" fill="none" xmlns="http://www.w3.org/2000/svg"><path d="M70.6 46.7H4.8C2.5 46.7.7 48.6.7 51v3.5c0 2.4 1.9 4.3 4.1 4.3h.9v1.1C5.7 65.4 10 70 15.3 70h44.6c5.3 0 9.6-4.5 9.6-10.1v-1.1h.9c2.3 0 4.1-1.9 4.1-4.3V51a4 4 0 0 0-3.9-4.3Zm-3.9 13.2c0 3.9-3 7-6.7 7H15.3c-3.7 0-6.7-3.2-6.7-7v-1.1h58.1v1.1Zm5.1-5.4c0 .7-.6 1.3-1.2 1.3H4.7c-.7 0-1.2-.6-1.2-1.3V51c0-.7.6-1.3 1.2-1.3h65.8c.7 0 1.2.6 1.2 1.3.1 0 .1 3.5.1 3.5ZM16.3 38.4l5.4 4.1 5.3-4.1 5.3 4.1 5.3-4.1 5.4 4.1 5.3-4.1 5.3 4.1 5.4-4.1 5.3 4.1 6.2-4.7-1.7-2.5-4.5 3.4-5.3-4.1-5.4 4.1-5.3-4.1-5.3 4.1-5.4-4.1-5.3 4.1-5.3-4.1-5.3 4.1-5.4-4.1-5.3 4.1-4.5-3.4-1.7 2.5 6.2 4.7 5.3-4.1ZM8.7 31.5h60.8c0-.6.1-1.2.1-1.9v-1.2C68.9 12.7 54.9 0 37.7 0 20.4 0 6.4 12.7 5.7 28.5v1.2c0 .6 0 1.3.1 1.9h2.9v-.1ZM37.7 3c15.6 0 28.4 11.3 29 25.5h-58C9.3 14.4 22.1 3 37.7 3Z" fill="#83B3D3"/><path d="M37.7 17.3c1.05 0 1.9-.9 1.9-2s-.85-2-1.9-2c-1.05 0-1.9.9-1.9 2s.85 2 1.9 2ZM29.9 12.2c1.05 0 1.9-.9 1.9-2s-.85-2-1.9-2c-1.05 0-1.9.9-1.9 2s.85 2 1.9 2ZM45.4 12.2c1.05 0 1.9-.9 1.9-2s-.85-2-1.9-2c-1.05 0-1.9.9-1.9 2s.85 2 1.9 2Z" fill="#83B3D3"/></svg>